<svg width="24" height="24" viewBox="0 0 24 24" fill="none" xmlns="http://www.w3.org/2000/svg">
<g id="vuesax/linear/driver">
<g id="driver">
<path id="Vector" d="M19.32 10H4.69002C3.21002 10 2.01001 8.79001 2.01001 7.32001V4.69C2.01001 3.21 3.22002 2.00999 4.69002 2.00999H19.32C20.8 2.00999 22 3.22 22 4.69V7.32001C22 8.79001 20.79 10 19.32 10Z" stroke="#0C0507" stroke-width="1.5" stroke-linecap="round" stroke-linejoin="round"/>
<path id="Vector_2" d="M19.32 22H4.69002C3.21002 22 2.01001 20.79 2.01001 19.32V16.69C2.01001 15.21 3.22002 14.01 4.69002 14.01H19.32C20.8 14.01 22 15.22 22 16.69V19.32C22 20.79 20.79 22 19.32 22Z" stroke="#0C0507" stroke-width="1.5" stroke-linecap="round" stroke-linejoin="round"/>
<path id="Vector_3" d="M6 5V7" stroke="#0C0507" stroke-width="1.5" stroke-linecap="round" stroke-linejoin="round"/>
<path id="Vector_4" d="M10 5V7" stroke="#0C0507" stroke-width="1.5" stroke-linecap="round" stroke-linejoin="round"/>
<path id="Vector_5" d="M6 17V19" stroke="#0C0507" stroke-width="1.5" stroke-linecap="round" stroke-linejoin="round"/>
<path id="Vector_6" d="M10 17V19" stroke="#0C0507" stroke-width="1.5" stroke-linecap="round" stroke-linejoin="round"/>
<path id="Vector_7" d="M14 6H18" stroke="#0C0507" stroke-width="1.5" stroke-linecap="round" stroke-linejoin="round"/>
<path id="Vector_8" d="M14 18H18" stroke="#0C0507" stroke-width="1.5" stroke-linecap="round" stroke-linejoin="round"/>
</g>
</g>
</svg>
